<svg width="305" height="370" viewBox="0 0 305 370" fill="none" xmlns="http://www.w3.org/2000/svg">
<line x1="25" y1="0.5" x2="280" y2="0.5" stroke="#AA8855"/>
<line x1="25" y1="369.5" x2="280" y2="369.5" stroke="#AA8855"/>
<line x1="25.5" x2="25.5" y2="26" stroke="#AA8855"/>
<line x1="279.5" x2="279.5" y2="26" stroke="#AA8855"/>
<line x1="289.5" y1="15" x2="289.5" y2="35" stroke="#AA8855"/>
<line x1="270.5" y1="15" x2="270.5" y2="35" stroke="#AA8855"/>
<line x1="279.5" y1="344" x2="279.5" y2="370" stroke="#AA8855"/>
<line x1="25.5" y1="344" x2="25.5" y2="370" stroke="#AA8855"/>
<line x1="26" y1="25.5" y2="25.5" stroke="#AA8855"/>
<line x1="305" y1="25.5" x2="279" y2="25.5" stroke="#AA8855"/>
<line x1="290" y1="15.5" x2="270" y2="15.5" stroke="#AA8855"/>
<line x1="290" y1="34.5" x2="270" y2="34.5" stroke="#AA8855"/>
<line x1="290" y1="34.5" x2="270" y2="34.5" stroke="#AA8855"/>
<line x1="34.5" y1="15" x2="34.5" y2="35" stroke="#AA8855"/>
<line x1="15.5" y1="15" x2="15.5" y2="35" stroke="#AA8855"/>
<line x1="35" y1="15.5" x2="15" y2="15.5" stroke="#AA8855"/>
<line x1="35" y1="34.5" x2="15" y2="34.5" stroke="#AA8855"/>
<line x1="34.5" y1="335" x2="34.5" y2="355" stroke="#AA8855"/>
<line x1="15.5" y1="335" x2="15.5" y2="355" stroke="#AA8855"/>
<line x1="35" y1="335.5" x2="15" y2="335.5" stroke="#AA8855"/>
<line x1="35" y1="354.5" x2="15" y2="354.5" stroke="#AA8855"/>
<line x1="289.5" y1="335" x2="289.5" y2="355" stroke="#AA8855"/>
<line x1="270.5" y1="335" x2="270.5" y2="355" stroke="#AA8855"/>
<line x1="290" y1="335.5" x2="270" y2="335.5" stroke="#AA8855"/>
<line x1="290" y1="354.5" x2="270" y2="354.5" stroke="#AA8855"/>
<line x1="305" y1="344.5" x2="279" y2="344.5" stroke="#AA8855"/>
<line x1="26" y1="344.5" y2="344.5" stroke="#AA8855"/>
<line x1="0.5" y1="25" x2="0.5" y2="345" stroke="#AA8855"/>
<line x1="304.5" y1="25" x2="304.5" y2="345" stroke="#AA8855"/>
</svg>
