<svg xmlns="http://www.w3.org/2000/svg" width="373" height="221" fill="none" viewBox="0 0 373 221"><path fill="#0087BA" d="M110.011.554c57.669-3.261 118.028 13.696 109.22 38.294-8.901 24.598 47.47-8.758 70.001.093 16.04 6.336 9.642 25.53 17.338 33.264 17.801 17.703 35.974-4.566 58.504 8.758 22.53 13.324-11.59 138.084-35.233 138.736H28.749s-53.177-31.213-14.885-57.488c25.867-17.703 7.231-30.654 4.45-38.761-3.245-9.317-10.755-25.623 22.066-37.549C73.203 73.975 64.766 47.98 63.93 42.575c-.834-5.497-11.496-38.76 46.081-42.021Z" opacity=".1"/><path fill="#E50000" d="M303.843 179.443c0-1.673.506-3.179 1.689-4.852 1.013-1.672 2.534-3.011 4.561-4.182a15.837 15.837 0 0 1 7.094-1.672c2.534 0 4.73.501 6.588 1.338 1.858 1.004 3.379 2.174 4.392 3.68 1.014 1.506 1.521 3.346 1.521 5.186 0 1.505-.338 2.676-.845 3.847a12.763 12.763 0 0 1-2.196 2.844c-.845.836-2.365 2.175-4.392 4.015l-1.351 1.338a5.084 5.084 0 0 0-.845 1.171c-.169.335-.338.669-.338 1.004-.169.334-.169 1.003-.507 1.84-.337 1.84-1.351 2.676-3.04 2.676-.845 0-1.689-.334-2.196-.836-.676-.669-.845-1.506-.845-2.677 0-1.505.169-2.676.676-3.68.507-1.003 1.013-2.007 1.858-2.676.676-.837 1.689-1.673 3.041-2.844a37.88 37.88 0 0 0 2.365-2.175c.506-.502.844-1.003 1.182-1.673.338-.669.507-1.171.507-2.007 0-1.338-.507-2.509-1.521-3.513-1.013-1.004-2.364-1.338-3.885-1.505-1.858 0-3.378.501-4.223 1.338-.844 1.004-1.689 2.342-2.365 4.182-.675 2.007-1.689 2.844-3.378 2.844-1.014 0-1.858-.335-2.365-1.004-.507-.669-1.182-1.171-1.182-2.007Zm12.5 28.27c-1.014 0-2.027-.334-2.703-1.003-.845-.67-1.182-1.673-1.182-2.844 0-1.004.337-2.008 1.182-2.677.676-.669 1.689-1.171 2.872-1.003 1.013 0 2.027.334 2.702 1.171.676.669 1.183 1.672 1.014 2.676 0 1.171-.338 2.175-1.182 2.844-.845.502-1.69.836-2.703.836Z" opacity=".1"/><path fill="#FC9916" d="M262.672 58.996c0-1.23.373-2.338 1.243-3.57.746-1.23 1.864-2.215 3.356-3.076a11.643 11.643 0 0 1 5.22-1.231c1.864 0 3.48.37 4.847.984 1.367.739 2.486 1.6 3.231 2.708.746 1.108 1.119 2.462 1.119 3.816 0 1.108-.249 1.97-.621 2.83a9.437 9.437 0 0 1-1.616 2.093c-.622.615-1.74 1.6-3.232 2.954l-.994.985a3.717 3.717 0 0 0-.621.861c-.125.246-.249.493-.249.739-.124.246-.124.738-.373 1.354-.248 1.353-.994 1.969-2.237 1.969-.621 0-1.243-.246-1.616-.615-.497-.493-.621-1.108-.621-1.97 0-1.108.124-1.969.497-2.707.373-.739.746-1.478 1.367-1.97.497-.615 1.243-1.23 2.237-2.092.87-.739 1.367-1.231 1.74-1.6.373-.37.622-.739.87-1.231.249-.492.373-.862.373-1.477 0-.985-.373-1.846-1.118-2.585-.746-.738-1.74-.984-2.859-1.108-1.367 0-2.486.37-3.107.985-.622.739-1.243 1.723-1.74 3.077-.497 1.477-1.243 2.093-2.486 2.093-.746 0-1.367-.247-1.74-.739s-.87-.861-.87-1.477Zm9.197 20.8c-.745 0-1.491-.245-1.988-.738-.622-.492-.87-1.23-.87-2.092 0-.738.248-1.477.87-1.97.497-.492 1.243-.86 2.113-.738.745 0 1.491.246 1.988.862.497.492.87 1.23.746 1.969 0 .862-.249 1.6-.87 2.092-.622.37-1.243.616-1.989.616Z" opacity=".2"/><path fill="#00B38E" d="M21.558 183.859c0-1.751.53-3.326 1.768-5.077 1.06-1.75 2.651-3.151 4.772-4.376a16.567 16.567 0 0 1 7.424-1.75c2.652 0 4.95.525 6.894 1.4 1.944 1.05 3.535 2.275 4.596 3.851 1.06 1.575 1.59 3.501 1.59 5.426 0 1.576-.353 2.801-.883 4.026a13.346 13.346 0 0 1-2.298 2.976c-.884.875-2.475 2.276-4.596 4.201l-1.414 1.401a5.32 5.32 0 0 0-.884 1.225c-.177.35-.353.7-.353 1.05-.177.35-.177 1.051-.53 1.926-.354 1.925-1.415 2.801-3.182 2.801-.884 0-1.768-.351-2.298-.876-.707-.7-.884-1.575-.884-2.8 0-1.576.177-2.801.707-3.851.53-1.051 1.06-2.101 1.944-2.801.708-.875 1.768-1.751 3.182-2.976a39 39 0 0 0 2.475-2.276c.53-.525.884-1.05 1.237-1.75.354-.7.53-1.225.53-2.101 0-1.4-.53-2.625-1.59-3.676-1.061-1.05-2.475-1.4-4.066-1.575-1.944 0-3.535.525-4.419 1.4-.884 1.051-1.768 2.451-2.475 4.377-.707 2.1-1.767 2.975-3.535 2.975-1.06 0-1.944-.35-2.475-1.05-.53-.7-1.237-1.225-1.237-2.1Zm13.08 29.582c-1.06 0-2.12-.35-2.828-1.05-.883-.7-1.237-1.75-1.237-2.976 0-1.05.354-2.1 1.237-2.8.707-.701 1.768-1.226 3.005-1.051 1.06 0 2.121.35 2.828 1.226.707.7 1.238 1.75 1.061 2.8 0 1.226-.354 2.276-1.237 2.976-.884.525-1.768.875-2.828.875Z" opacity=".2"/><path fill="#BCBEC0" d="M98.39 26.19c1.331-7.758 8.146-13.73 16.449-13.73 4.857 0 9.243 2.016 12.298 5.352 2.35-1.707 5.17-2.715 8.303-2.715 6.11 0 11.28 3.878 13.16 9.308 1.802-1.24 3.995-2.017 6.345-2.017 6.11 0 11.045 4.887 11.045 10.938 0 6.05-4.935 10.938-11.045 10.938-.392 0-.705 0-1.097-.078-.626 5.74-5.561 10.24-11.593 10.24-2.82 0-5.405-1.009-7.441-2.638a9.784 9.784 0 0 1-8.617 5.12c-3.995 0-7.363-2.327-8.851-5.663-1.645 1.396-3.838 2.172-6.188 2.172-4.074 0-7.598-2.482-9.008-6.05-.94.31-1.959.465-2.977.465-6.032 0-10.888-4.81-10.888-10.783-.157-5.817 4.386-10.472 10.105-10.86Z"/><path fill="#F3F4F4" d="M174.39 58.483c.93-.044 1.743.7 1.788 1.64.045.938-.692 1.758-1.621 1.803-.93.045-1.743-.7-1.788-1.639-.045-.939.692-1.759 1.621-1.804Z"/><path fill="#AEB0B3" d="M176.493 60.105c-.053-1.096-.951-1.993-2.113-1.937a2.012 2.012 0 0 0-1.916 2.131c.053 1.096.95 1.993 2.112 1.937 1.081-.13 1.97-1.036 1.917-2.131Zm-3.409.164a1.396 1.396 0 1 1 2.789-.134 1.396 1.396 0 1 1-2.789.135Z"/><path fill="#F3F4F4" d="M170.255 53.186c1.394-.067 2.613 1.05 2.681 2.459.068 1.408-1.037 2.638-2.432 2.705-1.395.067-2.614-1.05-2.682-2.458-.071-1.487.96-2.635 2.433-2.706Z"/><path fill="#AEB0B3" d="M173.164 55.64c-.076-1.564-1.376-2.756-2.925-2.681-1.55.074-2.807 1.39-2.731 2.955.075 1.564 1.379 2.835 3.006 2.756 1.546-.153 2.725-1.465 2.65-3.03Zm-5.114.247c-.06-1.251.898-2.317 2.138-2.377 1.239-.06 2.296.909 2.356 2.16.06 1.252-.898 2.318-2.137 2.378-1.24.06-2.296-.909-2.357-2.16Z"/><path fill="#F3F4F4" d="M164.246 47.759c1.705-.083 3.245 1.255 3.332 3.054.083 1.722-1.24 3.276-3.022 3.361-1.705.083-3.245-1.255-3.332-3.054-.009-1.803 1.317-3.279 3.022-3.361Z"/><path fill="#AEB0B3" d="M167.884 50.721c-.095-1.956-1.72-3.446-3.657-3.352-1.937.093-3.411 1.733-3.317 3.689.095 1.956 1.72 3.446 3.657 3.352 1.937-.093 3.411-1.733 3.317-3.689Zm-6.276.303a2.794 2.794 0 0 1 2.653-2.951 2.794 2.794 0 0 1 2.925 2.682 2.794 2.794 0 0 1-2.653 2.951 2.794 2.794 0 0 1-2.925-2.682Z"/><path fill="#F4FFFF" d="M98.784 25.871c1.332-7.757 8.147-13.73 16.45-13.73 4.856 0 9.243 2.017 12.298 5.352 2.35-1.706 5.17-2.715 8.303-2.715 6.11 0 11.28 3.879 13.16 9.309 1.801-1.241 3.995-2.017 6.344-2.017 6.11 0 11.045 4.887 11.045 10.938 0 6.05-4.935 10.937-11.045 10.937-.391 0-.704 0-1.096-.077-.627 5.74-5.562 10.24-11.593 10.24-2.82 0-5.405-1.01-7.442-2.638a9.783 9.783 0 0 1-8.616 5.12c-3.917 0-7.363-2.328-8.852-5.663-1.645 1.396-3.838 2.172-6.188 2.172a9.846 9.846 0 0 1-9.086-6.05c-.94.31-1.958.465-2.977.465-6.031 0-10.888-4.81-10.888-10.783 0-5.818 4.543-10.472 10.183-10.86Z"/><path fill="#AEB0B3" d="M126.593 56.978c-3.838 0-7.284-2.172-9.008-5.507-1.723 1.241-3.838 2.017-6.031 2.017-4.073 0-7.677-2.327-9.243-5.973-.94.233-1.88.388-2.82.388-6.188 0-11.28-5.042-11.28-11.17 0-5.819 4.465-10.628 10.261-11.093 1.489-7.99 8.539-13.73 16.763-13.73 4.622 0 9.087 1.861 12.298 5.197 2.429-1.707 5.249-2.638 8.304-2.638a14.266 14.266 0 0 1 13.316 9.076c1.88-1.163 3.995-1.784 6.188-1.784 6.267 0 11.436 5.042 11.436 11.326 0 6.283-5.091 11.247-11.436 11.247h-.783c-.862 5.818-5.875 10.24-11.907 10.24-2.663 0-5.248-.853-7.363-2.482-1.801 3.025-5.091 4.886-8.695 4.886Zm-8.694-6.67.235.465c1.488 3.335 4.856 5.43 8.538 5.43 3.446 0 6.658-1.862 8.303-4.887l.235-.388.313.31c2.037 1.63 4.622 2.56 7.207 2.56 5.718 0 10.574-4.266 11.201-9.93l.078-.387h.392c.392 0 .705.078 1.018.078 5.875 0 10.653-4.732 10.653-10.55 0-5.818-4.778-10.55-10.653-10.55-2.193 0-4.308.698-6.11 1.94l-.391.31-.157-.466c-1.88-5.43-7.05-9.076-12.768-9.076-2.976 0-5.718.931-8.068 2.638l-.235.233-.235-.233c-3.055-3.336-7.441-5.197-11.985-5.197-7.989 0-14.726 5.662-16.058 13.42l-.078.31h-.313c-5.562.31-9.87 4.887-9.87 10.394 0 5.74 4.7 10.473 10.575 10.473.94 0 1.958-.156 2.898-.388l.313-.078.157.31c1.41 3.569 4.857 5.818 8.695 5.818 2.193 0 4.23-.775 5.953-2.094l.157-.466Z"/><path fill="#E30613" d="M121.498 30.607c0-.775.235-1.473.783-2.25.47-.775 1.175-1.395 2.115-1.938a7.339 7.339 0 0 1 3.29-.776c1.175 0 2.193.232 3.055.62.861.466 1.566 1.009 2.036 1.707.47.698.705 1.551.705 2.405 0 .698-.156 1.24-.391 1.784-.314.543-.627.93-1.019 1.319-.391.387-1.096 1.008-2.036 1.861l-.627.62a2.372 2.372 0 0 0-.392.544c-.078.155-.156.31-.156.465-.079.155-.079.466-.235.853-.157.854-.627 1.242-1.41 1.242-.392 0-.784-.156-1.019-.388-.313-.31-.391-.698-.391-1.241 0-.698.078-1.241.313-1.707.235-.465.47-.93.862-1.241.313-.388.783-.776 1.41-1.319.548-.465.861-.776 1.096-1.008.235-.233.392-.466.549-.776.156-.31.235-.543.235-.93 0-.621-.235-1.164-.705-1.63-.47-.465-1.097-.62-1.802-.698-.862 0-1.567.233-1.958.62-.392.466-.784 1.087-1.097 1.94-.313.93-.783 1.319-1.566 1.319-.47 0-.862-.155-1.097-.466-.235-.31-.548-.543-.548-.93Zm5.796 13.11c-.47 0-.94-.155-1.253-.465-.392-.31-.549-.776-.549-1.32 0-.465.157-.93.549-1.24.313-.31.783-.543 1.331-.466.47 0 .94.155 1.254.543.313.31.548.776.47 1.241 0 .543-.157 1.009-.549 1.32-.391.232-.783.387-1.253.387Z"/><path fill="#4CAF52" d="M267.051 106.693h-8.095v8.095h8.095v-8.095Z"/><path fill="#F9CE80" d="M254.955 83.459h-8.094v8.094h8.094V83.46Z"/><path stroke="#02475B" stroke-miterlimit="10" stroke-width="1.012" d="m225.336 159.355 8.094 59.424M200.954 160.692l-7.999 58.471"/><path fill="#02475B" stroke="#02475B" d="M230.664 160.951H196.19c-1.438 0-2.547-1.109-2.547-2.547 0-1.438 1.109-2.547 2.547-2.547h34.474c1.438 0 2.547 1.109 2.547 2.547 0 1.438-1.109 2.547-2.547 2.547Z"/><path fill="#F3D8A3" d="m155.24 192.108-5.999 13.523 8.094 2.952 7.714-14.475-9.809-2Z"/><path fill="#02475B" d="m148.772 203.438-13.904 1.238c-1.048.095-1.809.857-2 1.904l24.76 10.095.667-9.523-9.523-3.714Z"/><path fill="#FEFEFF" d="m156.963 219.335-25.331-10.38.952-2.476 25.427 10.38-1.048 2.476Z"/><path fill="#09977A" d="m186.38 165.058-23.236 38.759-13.809-6.571 20.094-40.283c2.286-5.428 8.761-7.428 13.713-4.285 4.095 2.571 5.524 7.999 3.238 12.38Z"/><path fill="#00B38E" d="M230.475 138.303s5.904 11.428-2.857 16.571c-1.238.761-2.762 1.142-4.19 1.238l-37.521 6.666-13.047-17.618 27.998-6.761 29.617-.096Z"/><path fill="#F3D8A3" d="m186.766 190.305 7.618 12.666 6.952-5.142-7.428-14.571-7.142 7.047Z"/><path fill="#02475B" d="m192.381 202.117-6.856 12.285c-.476.857-.381 2 .381 2.762l22.284-14.856-7.428-6-8.381 5.809Z"/><path fill="#FEFEFF" d="m209.996 204.307-22.856 15.236-1.523-2.19 22.855-15.332 1.524 2.286Z"/><path fill="#00B38E" d="m183.241 150.023 18.475 41.235-13.142 7.809-21.523-39.521c-3.142-4.952-1.142-11.523 4.191-13.808 4.475-2 9.713-.096 11.999 4.285Z"/><path stroke="#09977A" stroke-miterlimit="10" stroke-width=".748" d="m188.671 162.315-6.095-2.952"/><path fill="#FCC3CB" d="m169.626 126.888 6.476-.477-.19 6.571h-5.619l-.667-6.094Z"/><path fill="#FFC9BD" d="M170.104 126.883s-14.856-5.809-13.237 6h14.285l-1.048-6Z"/><path fill="#736153" d="M192.107 99.932s-6.666 13.999-8.094 28.283c-.191 1.619 1.428 3.238 2.666 4.191 2.762 2.285 7.524 0 8.571-3.333 0 0 8.095-26.856 7.238-27.427-.286-.19-10.381-1.714-10.381-1.714Z"/><path fill="#736153" d="m187.809 123.169-20.474-.476 1.523 10.571 20.475.095c.762 0 1.524-.095 2.19-.571 2.286-1.334 3.238-4.381 2-6.952-1.047-2.095-3.428-3.238-5.714-2.667ZM208 94.506l-13.809 3.714c-1.428.19-2.38 1.429-2.285 2.857l8.952 37.236s5.047 5.713 29.712-.096l-3.429-37.997c.191-1.428-1.619-3.809-3.047-3.904L208 94.506Z"/><path stroke="#5E4C3F" stroke-miterlimit="10" stroke-width=".762" d="M197.138 122.405c.286 1.238-2.857-12.476-2.857-12.666"/><path fill="#9198AA" d="M200.379 133.836h-23.427v-2.667h23.427c.762 0 1.333.572 1.333 1.334-.095.666-.666 1.333-1.333 1.333Z"/><path fill="#AFB4C3" d="M180.002 133.831h-32.95c-1.81 0-3.333-1.238-3.809-2.952l-6.286-23.046c-.381-1.428.667-2.857 2.095-2.857h31.522c1.238 0 2.19.857 2.571 2l6.857 26.855Z"/><path stroke="#fff" stroke-miterlimit="10" stroke-width=".614" d="M155.719 122.402a2.952 2.952 0 1 0 0-5.905 2.952 2.952 0 0 0 0 5.905Z"/><path fill="#736153" d="M214.474 103.933s7.523 15.046 15.999 27.236c.952 1.333 3.238 1.999 4.856 1.999 3.714-.19 5.333-4.19 3.905-7.523 0 0-11.999-27.902-13.713-28.379-.191 0-11.047 6.667-11.047 6.667Z"/><path fill="#F3D8A3" d="m205.902 127.741 6.476-.476-.191 6.571h-5.618l-.667-6.095Z"/><path fill="#F3D8A3" d="M206.38 127.743s-14.856-5.809-13.237 6h14.284l-1.047-6Z"/><path fill="#736153" d="m233.804 122.973-23.331.667.476 10.57 24.188-.476c3.429-.476 5.524-4.095 4.286-7.332-.857-2.286-3.238-3.714-5.619-3.429Z"/><path stroke="#5E4C3F" stroke-miterlimit="10" stroke-width=".762" d="m218.949 109.74 6.19 13.522-14.666.476v3.524M225.14 123.257l3.238 1.619"/><path fill="#02475B" d="M192.472 68.89c-.095.191-6.952 2.667 0 10.762l5.333-9.619-5.333-1.142Z"/><path fill="#02475B" d="M195.526 70.698s-3.142 1.238-3.428 3.238l-.286-3.429s-2.095-4.38 1.429-6.952c4.381-3.142 8.571-.761 9.809.286 1.333.952 7.142 4.952 7.142 4.952s4.762 1.429.762 8.57l-3.524.477-2.095-5.333-5.333-1.81h-4.476Z"/><path fill="#F3D8A3" d="M197.432 81.08c.285 1.714-.857 3.428-2.572 3.809-1.714.285-3.428-.857-3.714-2.571-.285-1.715.858-3.429 2.572-3.81 1.714-.285 3.333.857 3.714 2.572ZM199.138 85.935l2.38 11.333c.572 3.238 2.667 3.047 5.524 2.476 2.476-.476 4.476-1.62 4.285-4.38l-2.19-12.286-9.999 2.857Z"/><path fill="#E4C17D" d="M200.948 94.414s7.523-3.428 6.951-9.142l-8.285 3.238 1.334 5.904Z"/><path fill="#F3D8A3" d="m204.47 89.556-3.619.667c-3.714.666-7.237-1.905-7.809-5.62l-1.238-8.475c-.666-4.19 2.191-8.19 6.286-8.951 4.19-.762 9.047 1.904 9.808 6.19l1.334 9.713c.381 3.048-1.715 5.905-4.762 6.476Z"/><path stroke="#02475B" stroke-linecap="round" stroke-linejoin="round" stroke-miterlimit="10" stroke-width=".45" d="M196.564 81.731v1.619c0 .286.286.571.572.571l.857-.095"/><path fill="#02475B" d="M200.28 75.543s-1.714.096-1.619.953c0 0 .096.666 1.619.571 1.524-.095 1.905-.286 1.905-.857.095-.571-1.048-.762-1.905-.667ZM193.616 77.738s1.428-.381 1.619.476c0 0 .19.572-1.048.857-1.238.286-1.619.19-1.809-.285-.191-.572.571-.953 1.238-1.048ZM199.422 80.21c.096.38.381.57.762.475.381-.095.572-.38.476-.761-.095-.381-.381-.572-.762-.477-.38.096-.571.381-.476.762ZM193.707 81.068c.095.38.381.571.762.476.381-.095.571-.381.476-.762-.095-.381-.381-.572-.762-.476-.286.095-.571.38-.476.762ZM195.518 86.303l.285-.38c.191-.096.667-.286 1.048-.286l3.047-.286c.381 0 .762 0 1.048.095l.762.381-6.19.476Z"/><path fill="#02475B" d="M206.378 79.46s-3.143-.286-1.619-6.095c0 0-7.428 1.524-9.333-3.809l3.429-3.619 7.618 1.334 2.571 4.856-.381 4.286-2.285 3.047Z"/><path fill="#F3D8A3" d="M212.659 78.214c.286 1.715-.857 3.429-2.571 3.81-1.714.285-3.428-.858-3.714-2.572-.286-1.714.857-3.428 2.571-3.809 1.714-.286 3.429.857 3.714 2.571Z"/><path stroke="#02475B" stroke-linecap="round" stroke-linejoin="round" stroke-miterlimit="10" stroke-width=".45" d="M208.564 79.928s-.381-2.285 1.81-2.38"/><path fill="#02475B" d="M195.421 69.453s-2.381.381-3.333 2.953l.952-6.857 4.571-1.524 3.428 1.143-.571 4.38-5.047-.095Z"/><path fill="#F3D8A3" d="m199.716 96.786 4.857-1.429 6.38-.476 2 .19s-.286 4.953-8.952 5.81c-7.618.857-4.285-4.095-4.285-4.095Z"/><path stroke="#0087BA" stroke-miterlimit="10" stroke-width="1.012" d="m329.668 219.039-301.983 1.319"/><path fill="#02475B" d="m123.712 137.268-12.856 81.899h3.905l18.284-83.423-9.333 1.524ZM242.376 137.268l12.856 81.899h-3.809l-18.284-83.423 9.237 1.524Z"/><path fill="#0087BA" stroke="#0087BA" d="M97.653 140.485v-6.142h169.463v6.142H97.653Z"/><path fill="#E6F3F8" stroke="#0087BA" d="m127.888 132.966-.006.001c-2.078.111-3.458-.554-4.398-1.573-.959-1.041-1.502-2.499-1.785-4.03-.282-1.526-.298-3.076-.241-4.253a21.709 21.709 0 0 1 .126-1.522l12.837.089.007.068c.034.317.073.772.092 1.319.04 1.098.001 2.555-.303 4.014-.305 1.462-.87 2.89-1.855 3.97-.972 1.066-2.386 1.828-4.474 1.917Z"/><path fill="#FEFEFF" stroke="#0087BA" d="M120.166 130.4c-2.004.084-3.765-1.596-3.765-3.595v-.01l-.001-.011c-.083-2.007 1.509-3.776 3.616-3.86h.001c2.004-.084 3.764 1.596 3.764 3.595v.011l.001.01c.083 2.007-1.509 3.776-3.616 3.86Zm-.185-7.142c-1.825.008-3.247 1.595-3.247 3.452 0 1.906 1.572 3.365 3.467 3.261 1.825-.008 3.247-1.595 3.247-3.452 0-1.8-1.561-3.365-3.467-3.261Z"/><path stroke="#0087BA" stroke-miterlimit="10" stroke-width=".793" d="M129.619 112.799s4.19-6.19-.953-9.904c-6.285-4.571 2.572-13.237 2.572-13.237M122.002 95.278s-5.142 8.285.953 11.999c5.523 3.333 1.428 8.095 1.428 8.095"/><g opacity=".1"><path fill="#02475B" d="m278.538 177.937 27.649-91.541h19.987l27.315 91.474H337.5l-6.929-25.05H301.19l-7.462 25.117h-15.19Zm26.516-38.642h21.653l-10.86-38.042-10.793 38.042Z"/><path fill="#096884" d="m272.473 177.936 27.649-91.541h19.987l27.316 91.474h-15.99l-6.929-25.05h-29.381l-7.462 25.117h-15.19Zm26.516-38.642h21.653l-10.86-38.042-10.793 38.042Z"/></g><g opacity=".1"><path fill="#02475B" d="M110.187 170.565a13.674 13.674 0 0 1-5.131-1.399c-1.665-.799-3.197-1.998-4.73-3.531 2.532-3.464 4.464-7.728 5.796-12.725 1.333-4.997 1.999-10.66 1.999-16.856 0-13.724-3.131-24.451-9.394-32.179-6.262-7.728-14.924-11.593-25.983-11.593-11.06 0-19.72 3.865-25.917 11.593-6.262 7.728-9.394 18.455-9.394 32.179 0 13.658 3.132 24.385 9.46 32.113 6.264 7.728 14.925 11.659 25.851 11.659 3.464 0 6.596-.4 9.46-1.132a27.853 27.853 0 0 0 8.062-3.465c2.732 3.331 5.463 5.796 8.328 7.329 2.865 1.532 4.664 2.798 8.461 2.798l3.132-.533v-14.258Zm-18.788-25.45c-.267 2.265-.733 4.131-1.333 5.597-.8 2.798-1.799 5.196-3.131 7.195-3.265 4.997-7.995 7.462-14.258 7.462-1.066 0-2.132-.067-3.131-.267-4.664-.733-8.395-3.131-11.06-7.195-1.265-1.999-2.331-4.331-3.13-7.062l-.068-.067c-.6-1.466-1.065-3.331-1.332-5.596-.266-2.265-.4-4.93-.4-7.995 0-2.065.067-4.064.2-5.996.4-6.396 1.6-11.593 3.664-15.524.067-.066.067-.199.134-.266 0 0 0-.067.066-.067.2-.399.467-.866.733-1.266 1.932-3.131 4.397-5.263 7.529-6.529.133-.066.266-.066.4-.133 1.932-.733 4.13-1.066 6.462-1.066 6.33 0 11.126 2.598 14.324 7.728a25.939 25.939 0 0 1 2.132 4.531c1.266 3.331 1.999 7.328 2.332 11.992.133 2.065.266 4.197.266 6.529 0 3.065-.133 5.73-.4 7.995Z"/><path fill="#096884" d="M104.118 170.565a13.707 13.707 0 0 1-5.13-1.399c-1.666-.8-3.198-1.999-4.73-3.531 2.531-3.465 4.464-7.729 5.796-12.726 1.332-4.996 1.999-10.659 1.999-16.855 0-13.725-3.132-24.451-9.394-32.18-6.263-7.728-14.924-11.592-25.984-11.592-11.06 0-19.72 3.864-25.916 11.592-6.263 7.729-9.394 18.455-9.394 32.18 0 13.657 3.131 24.384 9.46 32.112 6.263 7.729 14.924 11.659 25.85 11.659 3.465 0 6.596-.399 9.461-1.132a27.853 27.853 0 0 0 8.062-3.465c2.731 3.332 5.463 5.797 8.328 7.329 2.864 1.532 6.196 2.265 9.926 2.265h1.666v-14.257ZM85.33 145.114c-.266 2.266-.733 4.131-1.332 5.597-.8 2.798-1.8 5.196-3.132 7.195-3.264 4.997-7.995 7.462-14.257 7.462-1.066 0-2.132-.067-3.131-.266-4.664-.733-8.395-3.132-11.06-7.196-1.266-1.999-2.332-4.33-3.131-7.062l-.067-.067c-.6-1.465-1.066-3.331-1.332-5.596-.267-2.265-.4-4.93-.4-7.995 0-2.065.066-4.064.2-5.996.4-6.396 1.599-11.593 3.664-15.523.067-.067.067-.2.133-.267 0 0 0-.066.067-.066.2-.4.466-.867.733-1.266 1.932-3.132 4.397-5.264 7.528-6.529.133-.067.267-.067.4-.134 1.932-.733 4.13-1.066 6.462-1.066 6.33 0 11.127 2.599 14.325 7.729a25.928 25.928 0 0 1 2.132 4.53c1.265 3.331 1.998 7.329 2.331 11.992.134 2.066.267 4.198.267 6.53 0 3.064-.133 5.729-.4 7.994Z"/></g></svg>